<?xml version="1.0" encoding="UTF-8" standalone="no"?>
<svg
   height="24"
   viewBox="0 0 24 24"
   width="24"
   version="1.1"
   id="svg6"
   sodipodi:docname="ComposerProject.svg"
   inkscape:version="1.1.1 (3bf5ae0d25, 2021-09-20)"
   xmlns:inkscape="http://www.inkscape.org/namespaces/inkscape"
   xmlns:sodipodi="http://sodipodi.sourceforge.net/DTD/sodipodi-0.dtd"
   xmlns="http://www.w3.org/2000/svg"
   xmlns:svg="http://www.w3.org/2000/svg"
   xmlns:rdf="http://www.w3.org/1999/02/22-rdf-syntax-ns#"
   xmlns:cc="http://creativecommons.org/ns#"
   xmlns:dc="http://purl.org/dc/elements/1.1/">
  <metadata
     id="metadata12">
    <rdf:RDF>
      <cc:Work
         rdf:about="">
        <dc:format>image/svg+xml</dc:format>
        <dc:type
           rdf:resource="http://purl.org/dc/dcmitype/StillImage" />
        <dc:title />
      </cc:Work>
    </rdf:RDF>
  </metadata>
  <defs
     id="defs10" />
  <sodipodi:namedview
     pagecolor="#ffffff"
     bordercolor="#666666"
     borderopacity="1"
     objecttolerance="10"
     gridtolerance="10"
     guidetolerance="10"
     inkscape:pageopacity="0"
     inkscape:pageshadow="2"
     inkscape:window-width="2160"
     inkscape:window-height="1350"
     id="namedview8"
     showgrid="true"
     inkscape:pagecheckerboard="false"
     showguides="true"
     inkscape:zoom="27.812867"
     inkscape:cx="11.361648"
     inkscape:cy="9.8156008"
     inkscape:window-x="-11"
     inkscape:window-y="-11"
     inkscape:window-maximized="1"
     inkscape:current-layer="svg6"
     inkscape:snap-bbox="true"
     inkscape:bbox-paths="true"
     inkscape:bbox-nodes="true"
     inkscape:snap-bbox-edge-midpoints="true"
     inkscape:snap-bbox-midpoints="true">
    <inkscape:grid
       type="xygrid"
       id="grid4526" />
  </sodipodi:namedview>
  <path
     id="path835-0"
     style="color:#000000;font-style:normal;font-variant:normal;font-weight:normal;font-stretch:normal;font-size:medium;line-height:normal;font-family:sans-serif;font-variant-ligatures:normal;font-variant-position:normal;font-variant-caps:normal;font-variant-numeric:normal;font-variant-alternates:normal;font-feature-settings:normal;text-indent:0;text-align:start;text-decoration:none;text-decoration-line:none;text-decoration-style:solid;text-decoration-color:#000000;letter-spacing:normal;word-spacing:normal;text-transform:none;writing-mode:lr-tb;direction:ltr;text-orientation:mixed;dominant-baseline:auto;baseline-shift:baseline;text-anchor:start;white-space:normal;shape-padding:0;clip-rule:nonzero;display:inline;overflow:visible;visibility:visible;opacity:1;isolation:auto;mix-blend-mode:normal;color-interpolation:sRGB;color-interpolation-filters:linearRGB;solid-color:#000000;solid-opacity:1;vector-effect:none;fill:#000000;fill-opacity:1;fill-rule:evenodd;stroke:none;stroke-width:2;stroke-linecap:round;stroke-linejoin:round;stroke-miterlimit:4;stroke-dasharray:none;stroke-dashoffset:0;stroke-opacity:1;color-rendering:auto;image-rendering:auto;shape-rendering:auto;text-rendering:auto;enable-background:accumulate"
     d="M 18.998047 1.3945312 L 16.101562 2.171875 L 16.876953 5.0703125 L 19.775391 4.2929688 L 18.998047 1.3945312 z M 20.951172 1.9863281 A 1.0001 1.0001 0 0 0 20.275391 2.2929688 L 21 5 L 17.8125 5.8535156 C 17.562863 6.310588 17.433665 6.8160876 17.427734 7.2832031 C 17.408657 8.7859752 18 10.195875 18 12 C 18 12.926584 17.867579 13.492866 17.710938 13.740234 C 17.554295 13.987603 17.376746 14.130678 16.658203 14.214844 C 16.383977 14.246964 16.253963 14.219644 15.789062 13.917969 C 15.554469 13.765724 15.262601 13.54173 14.902344 13.253906 A 5.2203792 4.7889242 78.014332 0 0 16.023438 12 A 5.2203792 4.7889242 78.014332 0 0 14.632812 4.75 A 5.2203792 4.7889242 78.014332 0 0 12.042969 3.8027344 A 5.2203792 4.7889242 78.014332 0 0 7.9765625 6 A 5.2203792 4.7889242 78.014332 0 0 8.25 12.095703 C 7.9996748 12.442725 7.6581398 12.890643 7.2636719 13.337891 C 6.443689 14.267586 5.3333333 15 5 15 C 4.8333333 15 4.7977813 14.979724 4.6445312 14.775391 C 4.4912813 14.571057 4.3266807 14.181725 4.2207031 13.757812 C 4.1047454 13.293983 4.053502 12.849673 4.0273438 12.507812 L 4 12.535156 L 1.5566406 10.091797 A 1.0001 1.0001 0 0 0 1.2929688 11.707031 L 2.0585938 12.472656 C 2.0665437 12.799363 2.0519638 13.33287 2.2792969 14.242188 C 2.4233193 14.818275 2.6337187 15.428943 3.0429688 15.974609 C 3.4522187 16.520276 4.1666667 17 5 17 C 6.6666667 17 7.8196727 15.732414 8.7636719 14.662109 C 8.9506085 14.450161 9.1230751 14.24184 9.2851562 14.039062 C 9.0941886 14.758668 9.075101 15.492994 9.0410156 16.109375 C 9.0089656 16.688943 8.9659246 17.198615 8.8691406 17.541016 C 8.7723566 17.883416 8.6791132 18.022047 8.4746094 18.148438 C 8.2701692 18.274787 7.922167 18.325341 7.3769531 18.234375 C 6.8317393 18.143405 6.1565139 17.918626 5.4667969 17.695312 C 4.7770798 17.471999 4.0819787 17.237182 3.3242188 17.214844 C 2.5664586 17.192504 1.5950284 17.581428 1.1777344 18.416016 C 0.93360484 18.904275 0.94166624 19.440485 1.0507812 19.851562 C 1.1598963 20.262642 1.350068 20.586922 1.5390625 20.857422 C 1.9170514 21.398421 2.3515625 21.759766 2.3515625 21.759766 A 1.0001 1.0001 0 1 0 3.6484375 20.240234 C 3.6484375 20.240234 3.3835951 20.004735 3.1796875 19.712891 C 3.0777337 19.566969 3.0050828 19.415905 2.984375 19.337891 C 2.9756647 19.305074 2.9738378 19.299703 2.9726562 19.296875 C 3.0386426 19.15483 2.9566807 19.205733 3.265625 19.214844 C 3.5873502 19.224344 4.1848822 19.381802 4.8515625 19.597656 C 5.5182428 19.813511 6.2613528 20.075967 7.046875 20.207031 C 7.8323972 20.338096 8.7273292 20.344792 9.5253906 19.851562 C 10.217551 19.423783 10.610669 18.728921 10.792969 18.083984 C 10.975268 17.439048 11.004558 16.807384 11.037109 16.21875 C 11.055749 15.881679 11.078906 15.572812 11.111328 15.289062 C 11.308231 16.339902 11.698794 17.259351 12.220703 18.033203 L 14.927734 18.033203 C 14.890589 18.005439 14.850828 17.98207 14.814453 17.953125 C 13.838575 17.17657 13.093444 16.020856 12.980469 14.273438 C 13.636702 14.810592 14.196458 15.268156 14.701172 15.595703 C 15.362154 16.024664 16.117916 16.293636 16.890625 16.203125 C 17.956355 16.078291 18.892669 15.615428 19.402344 14.810547 C 19.912019 14.005665 20 13.073416 20 12 C 20 9.8041247 19.417585 8.1080715 19.427734 7.3085938 C 19.432809 6.9088548 19.459681 6.82422 19.689453 6.6328125 C 19.919225 6.441405 20.510683 6.1699171 21.628906 5.9863281 A 1.0001 1.0001 0 0 0 22.441406 4.7714844 L 21.974609 2.7714844 A 1.0001 1.0001 0 0 0 20.951172 1.9863281 z M 4 6.8789062 L 1.8789062 9 L 4 11.121094 L 6.1210938 9 L 4 6.8789062 z M 10 8.9785156 A 1.0213414 1.0213414 0 0 1 11.021484 10 A 1.0213414 1.0213414 0 0 1 10 11.021484 A 1.0213414 1.0213414 0 0 1 8.9785156 10 A 1.0213414 1.0213414 0 0 1 10 8.9785156 z M 13 8.9785156 A 1.0213414 1.0213414 0 0 1 14.021484 10 A 1.0213414 1.0213414 0 0 1 13 11.021484 A 1.0213414 1.0213414 0 0 1 11.978516 10 A 1.0213414 1.0213414 0 0 1 13 8.9785156 z M 20 15 A 1.0001 1.0001 0 1 0 20 17 L 20.484375 17 C 20.404535 17.171109 20.430115 17.175613 20.330078 17.357422 C 19.868113 18.196999 19.190704 18.898193 18.75 18.984375 C 17.956245 19.139597 16.948911 19.031246 16.011719 18.644531 L 16.011719 20.773438 C 17.06396 21.080571 18.145169 21.140403 19.132812 20.947266 C 20.65493 20.649608 21.507534 19.369908 22.083984 18.322266 C 22.660435 17.274623 22.957031 16.292969 22.957031 16.292969 A 1.0001 1.0001 0 0 0 22 15 L 20 15 z M 12.011719 19.033203 L 12.011719 22.033203 L 15.011719 22.033203 L 15.011719 19.033203 L 12.011719 19.033203 z " />
</svg>
