<?xml version="1.0" encoding="UTF-8" standalone="no"?>
<svg
   height="24"
   viewBox="0 0 24 24"
   width="24"
   version="1.1"
   id="svg6"
   sodipodi:docname="Tiller.svg"
   inkscape:version="1.3 (0e150ed6c4, 2023-07-21)"
   xmlns:inkscape="http://www.inkscape.org/namespaces/inkscape"
   xmlns:sodipodi="http://sodipodi.sourceforge.net/DTD/sodipodi-0.dtd"
   xmlns="http://www.w3.org/2000/svg"
   xmlns:svg="http://www.w3.org/2000/svg"
   xmlns:rdf="http://www.w3.org/1999/02/22-rdf-syntax-ns#"
   xmlns:cc="http://creativecommons.org/ns#"
   xmlns:dc="http://purl.org/dc/elements/1.1/">
  <metadata
     id="metadata12">
    <rdf:RDF>
      <cc:Work
         rdf:about="">
        <dc:format>image/svg+xml</dc:format>
        <dc:type
           rdf:resource="http://purl.org/dc/dcmitype/StillImage" />
        <dc:title />
      </cc:Work>
    </rdf:RDF>
  </metadata>
  <defs
     id="defs10" />
  <sodipodi:namedview
     pagecolor="#ffffff"
     bordercolor="#666666"
     borderopacity="1"
     objecttolerance="10"
     gridtolerance="10"
     guidetolerance="10"
     inkscape:pageopacity="0"
     inkscape:pageshadow="2"
     inkscape:window-width="1709"
     inkscape:window-height="1083"
     id="namedview8"
     showgrid="true"
     inkscape:pagecheckerboard="false"
     showguides="true"
     inkscape:zoom="32"
     inkscape:cx="11.1875"
     inkscape:cy="12.109375"
     inkscape:window-x="114"
     inkscape:window-y="38"
     inkscape:window-maximized="0"
     inkscape:current-layer="svg6"
     inkscape:showpageshadow="0"
     inkscape:deskcolor="#d1d1d1">
    <inkscape:grid
       type="xygrid"
       id="grid4526"
       originx="0"
       originy="0"
       spacingy="1"
       spacingx="1"
       units="px"
       visible="true" />
  </sodipodi:namedview>
  <path
     id="path2"
     style="fill:#000000;stroke-width:0.999999;stroke-linejoin:round"
     d="M 7 2.3398438 A 1 1 0 0 0 6.5 2.4746094 A 1 1 0 0 0 6.1347656 3.8398438 A 1 1 0 0 0 6.1503906 3.8632812 L 7.1777344 5.6425781 A 8 8 0 0 0 4.0722656 11 L 2 11 A 1 1 0 0 0 1 12 A 1 1 0 0 0 2 13 A 1 1 0 0 0 2.0292969 12.998047 L 4.0722656 12.998047 A 8 8 0 0 0 7.1757812 18.357422 L 6.1347656 20.160156 A 1 1 0 0 0 6.5 21.525391 A 1 1 0 0 0 7.8652344 21.160156 A 1 1 0 0 0 7.8789062 21.134766 L 8.9023438 19.361328 A 8 8 0 0 0 12 20 A 8 8 0 0 0 15.095703 19.361328 L 16.134766 21.160156 A 1 1 0 0 0 17.5 21.525391 A 1 1 0 0 0 17.865234 20.160156 A 1 1 0 0 0 17.849609 20.136719 L 16.822266 18.357422 A 8 8 0 0 0 19.927734 13 L 22 13 A 1 1 0 0 0 23 12 A 1 1 0 0 0 22 11 A 1 1 0 0 0 21.970703 11.001953 L 19.935547 11.001953 A 8 8 0 0 0 16.833984 5.6269531 L 17.865234 3.8398438 A 1 1 0 0 0 17.5 2.4746094 A 1 1 0 0 0 16.134766 2.8398438 A 1 1 0 0 0 16.121094 2.8652344 L 15.103516 4.6289062 A 8 8 0 0 0 12 4 A 8 8 0 0 0 8.9042969 4.6386719 L 7.8652344 2.8398438 A 1 1 0 0 0 7 2.3398438 z M 12 6 A 6 6 0 0 1 14.09375 6.3789062 L 12.548828 9.0527344 A 3 3 0 0 0 12 9 A 3 3 0 0 0 11.455078 9.0566406 L 9.9140625 6.3886719 A 6 6 0 0 1 12 6 z M 15.822266 7.3769531 A 6 6 0 0 1 17.917969 11.001953 L 14.828125 11.001953 A 3 3 0 0 0 14.279297 10.050781 L 15.822266 7.3769531 z M 8.1875 7.390625 L 9.7207031 10.048828 A 3 3 0 0 0 9.1796875 11 L 6.0878906 11 A 6 6 0 0 1 8.1875 7.390625 z M 6.0878906 12.998047 L 9.1777344 12.998047 A 3 3 0 0 0 9.7207031 13.949219 L 8.1855469 16.607422 A 6 6 0 0 1 6.0878906 12.998047 z M 14.820312 13 L 17.912109 13 A 6 6 0 0 1 15.8125 16.609375 L 14.279297 13.951172 A 3 3 0 0 0 14.820312 13 z M 11.453125 14.943359 A 3 3 0 0 0 12 15 A 3 3 0 0 0 12.544922 14.943359 L 14.085938 17.611328 A 6 6 0 0 1 12 18 A 6 6 0 0 1 9.9140625 17.611328 L 11.453125 14.943359 z " />
</svg>
