<?xml version="1.0" encoding="UTF-8" standalone="no"?>
<svg
   height="24"
   viewBox="0 0 24 24"
   width="24"
   version="1.1"
   id="svg6"
   sodipodi:docname="DockerManagedPlugin.svg"
   inkscape:version="1.1.2 (0a00cf5339, 2022-02-04)"
   xmlns:inkscape="http://www.inkscape.org/namespaces/inkscape"
   xmlns:sodipodi="http://sodipodi.sourceforge.net/DTD/sodipodi-0.dtd"
   xmlns="http://www.w3.org/2000/svg"
   xmlns:svg="http://www.w3.org/2000/svg"
   xmlns:rdf="http://www.w3.org/1999/02/22-rdf-syntax-ns#"
   xmlns:cc="http://creativecommons.org/ns#"
   xmlns:dc="http://purl.org/dc/elements/1.1/">
  <metadata
     id="metadata12">
    <rdf:RDF>
      <cc:Work
         rdf:about="">
        <dc:format>image/svg+xml</dc:format>
        <dc:type
           rdf:resource="http://purl.org/dc/dcmitype/StillImage" />
        <dc:title />
      </cc:Work>
    </rdf:RDF>
  </metadata>
  <defs
     id="defs10" />
  <sodipodi:namedview
     pagecolor="#ffffff"
     bordercolor="#666666"
     borderopacity="1"
     objecttolerance="10"
     gridtolerance="10"
     guidetolerance="10"
     inkscape:pageopacity="0"
     inkscape:pageshadow="2"
     inkscape:window-width="1920"
     inkscape:window-height="1127"
     id="namedview8"
     showgrid="true"
     inkscape:pagecheckerboard="false"
     showguides="true"
     inkscape:zoom="19.666667"
     inkscape:cx="10.881356"
     inkscape:cy="19.067796"
     inkscape:window-x="0"
     inkscape:window-y="0"
     inkscape:window-maximized="1"
     inkscape:current-layer="svg6"
     inkscape:document-rotation="0"
     inkscape:snap-bbox="true"
     inkscape:bbox-paths="true"
     inkscape:bbox-nodes="true"
     inkscape:snap-bbox-edge-midpoints="true"
     inkscape:snap-bbox-midpoints="true">
    <inkscape:grid
       type="xygrid"
       id="grid4526" />
  </sodipodi:namedview>
  <path
     id="path20"
     style="color:#000000;clip-rule:nonzero;display:inline;overflow:visible;visibility:visible;opacity:1;isolation:auto;mix-blend-mode:normal;color-interpolation:sRGB;color-interpolation-filters:linearRGB;solid-color:#000000;solid-opacity:1;vector-effect:none;fill:#000000;fill-opacity:1;fill-rule:nonzero;stroke:#ffffff;stroke-width:0;stroke-linecap:butt;stroke-linejoin:miter;stroke-miterlimit:4;stroke-dasharray:none;stroke-dashoffset:0;stroke-opacity:1;marker:none;marker-start:none;marker-mid:none;marker-end:none;color-rendering:auto;image-rendering:auto;shape-rendering:auto;text-rendering:auto;enable-background:accumulate"
     d="m 16.691406,12.322266 a 1.8748123,1.2498748 44.999678 0 0 -0.732422,0.267578 1.8748123,1.2498748 44.999678 0 0 0.44336,2.210937 1.8748123,1.2498748 44.999678 0 0 0.01172,0.01172 H 1.8066404 c 0.00229,1.566304 0.5354868,3.093082 1.5253906,4.365235 2.9008748,-0.0194 4.6640562,-0.312503 5.6484375,-0.59375 0.5090288,-0.145435 0.8180969,-0.285197 0.9863285,-0.376954 0.126164,-0.06883 0.146116,-0.08188 0.148437,-0.08398 L 11,19 c 0,0 -0.181946,0.162096 -0.44336,0.304688 -0.261413,0.142591 -0.64976,0.313436 -1.2343746,0.480468 -0.969156,0.276901 -2.5097399,0.531649 -4.7949219,0.615235 1.485656,1.22748 4.0334858,1.908478 6.0273435,1.912109 3.877602,0 7.581556,-2.50903 8.517578,-5.863281 a 1.8748158,1.2498724 14.999839 0 0 0.597657,0.238281 1.8748158,1.2498724 14.999839 0 0 2.134765,-0.724609 1.8748158,1.2498724 14.999839 0 0 -1.490234,-1.69336 1.8748158,1.2498724 14.999839 0 0 -1.453125,0.04297 1.8748123,1.2498748 44.999678 0 0 -0.689453,-1.28125 1.8748123,1.2498748 44.999678 0 0 -0.542969,-0.419922 1.8748123,1.2498748 44.999678 0 0 -0.9375,-0.289062 z M 6.1796872,16.0625 c 0.3451444,0 0.6250001,0.279858 0.625,0.625 0,0.345145 -0.2798556,0.625 -0.625,0.625 -0.3451443,0 -0.6250001,-0.279858 -0.625,-0.625 2e-7,-0.345142 0.279856,-0.625 0.625,-0.625 z" />
  <path
     id="rect509"
     style="fill:#000000"
     d="m 5.816406,4.310547 c -0.554,0 -1,0.446 -1,1 v 1 1 a 1.5,1.5 0 0 1 1.5,1.5 1.5,1.5 0 0 1 -1.5,1.5 v 1 1 c 0,0.554 0.446,1 1,1 h 1 1 a 1.5,1.5 0 0 1 1.5,-1.5 1.5,1.5 0 0 1 1.5,1.5 h 1 1 c 0.554,0 1,-0.446 1,-1 v -2 a 1.5,1.5 0 0 0 1.5,-1.5 1.5,1.5 0 0 0 -1.5,-1.5 v -2 c 0,-0.554 -0.446,-1 -1,-1 h -3 v 1 h 3 v 3 h 0.460938 0.539062 a 0.5,0.5 0 0 1 0.5,0.5 0.5,0.5 0 0 1 -0.5,0.5 h -0.539062 -0.460938 v 3 h -1.208984 a 2.5,2.5 0 0 0 -2.291016,-1.5 2.5,2.5 0 0 0 -2.2890625,1.5 H 5.816406 v -1.210938 a 2.5,2.5 0 0 0 1.5,-2.289062 2.5,2.5 0 0 0 -1.5,-2.2910156 V 5.310547 h 3 v -1 z" />
  <path
     id="path1712-6"
     style="fill:#000000;stroke-width:1.5"
     d="M 7.816406,4.310547 A 1.5,1.5 0 0 0 7.919922,4.849609 H 8.816406 V 4.310547 a 0.5,0.5 0 0 1 0.5,-0.5 0.5,0.5 0 0 1 0.5,0.5 v 0.539062 h 0.896484 a 1.5,1.5 0 0 0 0.103516,-0.539062 1.5,1.5 0 0 0 -1.5,-1.5 1.5,1.5 0 0 0 -1.5,1.5 z" />
</svg>
