<svg xmlns="http://www.w3.org/2000/svg" height="24" width="24"><path style="color:#000;overflow:visible;opacity:1;vector-effect:none;fill:#000;fill-opacity:1;stroke:none;stroke-width:1.99999988;stroke-linecap:butt;stroke-linejoin:miter;stroke-miterlimit:4;stroke-dasharray:none;stroke-dashoffset:0;stroke-opacity:.82100238" d="M4 3c-.554 0-1 .446-1 1v16c0 .554.446 1 1 1h16c.554 0 1-.446 1-1V4c0-.554-.446-1-1-1H4zm1 2h14v14H5V5zm7 1.637L6.93 8.26 12 10.365l5.07-2.105L12 6.637zM6.93 9.52v5.98l4.484 1.863v-5.978L6.93 9.52zm10.14 0-4.484 1.864v5.978L17.07 15.5V9.521z"/></svg>