<?xml version="1.0" encoding="UTF-8" standalone="no"?>
<svg
   height="24"
   viewBox="0 0 24 24"
   width="24"
   version="1.1"
   id="svg6"
   sodipodi:docname="Podman.svg"
   inkscape:version="1.1.2 (0a00cf5339, 2022-02-04)"
   xmlns:inkscape="http://www.inkscape.org/namespaces/inkscape"
   xmlns:sodipodi="http://sodipodi.sourceforge.net/DTD/sodipodi-0.dtd"
   xmlns="http://www.w3.org/2000/svg"
   xmlns:svg="http://www.w3.org/2000/svg"
   xmlns:rdf="http://www.w3.org/1999/02/22-rdf-syntax-ns#"
   xmlns:cc="http://creativecommons.org/ns#"
   xmlns:dc="http://purl.org/dc/elements/1.1/">
  <metadata
     id="metadata12">
    <rdf:RDF>
      <cc:Work
         rdf:about="">
        <dc:format>image/svg+xml</dc:format>
        <dc:type
           rdf:resource="http://purl.org/dc/dcmitype/StillImage" />
        <dc:title />
      </cc:Work>
    </rdf:RDF>
  </metadata>
  <defs
     id="defs10" />
  <sodipodi:namedview
     pagecolor="#ffffff"
     bordercolor="#666666"
     borderopacity="1"
     objecttolerance="10"
     gridtolerance="10"
     guidetolerance="10"
     inkscape:pageopacity="0"
     inkscape:pageshadow="2"
     inkscape:window-width="2560"
     inkscape:window-height="1361"
     id="namedview8"
     showgrid="true"
     inkscape:pagecheckerboard="false"
     showguides="true"
     inkscape:zoom="22.627417"
     inkscape:cx="19.600116"
     inkscape:cy="7.0710678"
     inkscape:window-x="0"
     inkscape:window-y="0"
     inkscape:window-maximized="1"
     inkscape:current-layer="svg6"
     inkscape:document-rotation="0"
     inkscape:snap-bbox="true"
     inkscape:bbox-paths="true"
     inkscape:bbox-nodes="true"
     inkscape:snap-bbox-edge-midpoints="true"
     inkscape:snap-bbox-midpoints="true"
     inkscape:lockguides="true">
    <inkscape:grid
       type="xygrid"
       id="grid4526" />
  </sodipodi:namedview>
  <circle
     style="fill:#000000;stroke-width:2;stroke-miterlimit:4;stroke-dasharray:none"
     id="path4382"
     cx="9.5"
     cy="9.5"
     r="1.5" />
  <circle
     style="fill:#000000;stroke-width:2;stroke-miterlimit:4;stroke-dasharray:none"
     id="path4382-9"
     cx="14.5"
     cy="9.5"
     r="1.5" />
  <path
     id="path123"
     style="color:#000000;fill:#000000;stroke-width:0.974519;-inkscape-stroke:none"
     d="M 12 2 C 10.833334 2 9.0371295 2.2584947 7.3789062 3.3574219 C 5.720683 4.4563489 4.2932422 6.4345715 4.0039062 9.5117188 C 3.4721843 15.166698 3.0117187 18 3.0117188 18 L 5.03125 18 C 5.1339128 17.330506 5.5317643 14.621841 5.9960938 9.6835938 C 6.2425363 7.0626241 7.3156081 5.7164606 8.5234375 4.9160156 C 9.7312669 4.1155706 11.166668 3.8984375 12 3.8984375 C 12.833333 3.8984375 14.268732 4.1155707 15.476562 4.9160156 C 16.684391 5.7164606 17.757464 7.0626241 18.003906 9.6835938 C 18.468236 14.621841 18.866087 17.330506 18.96875 18 L 20.988281 18 C 20.988281 18 20.527816 15.166698 19.996094 9.5117188 C 19.706758 6.4345715 18.279317 4.456349 16.621094 3.3574219 C 14.962871 2.2584946 13.166665 2 12 2 z " />
  <rect
     style="fill:#000000;stroke-width:3.12755;stroke-miterlimit:4;stroke-dasharray:none"
     id="rect1836"
     width="21.994141"
     height="2"
     x="1.0029297"
     y="20" />
  <path
     id="rect2435"
     style="fill:#000000;stroke-width:2;stroke-miterlimit:4;stroke-dasharray:none"
     inkscape:transform-center-x="-2.4504067"
     inkscape:transform-center-y="0.50304267"
     d="M 12 13 A 2 1 0 0 0 10.669922 13.255859 L 6.9003906 14.042969 L 7.3085938 16 L 9.4101562 15.560547 L 7.4414062 17.208984 L 8.7246094 18.744141 L 12 16.001953 L 15.275391 18.744141 L 16.558594 17.208984 L 14.589844 15.560547 L 16.691406 16 L 17.099609 14.042969 L 13.339844 13.257812 A 2 1 0 0 0 12 13 z " />
</svg>
