<?xml version="1.0" encoding="UTF-8" standalone="no"?>
<svg
   xmlns:dc="http://purl.org/dc/elements/1.1/"
   xmlns:cc="http://creativecommons.org/ns#"
   xmlns:rdf="http://www.w3.org/1999/02/22-rdf-syntax-ns#"
   xmlns:svg="http://www.w3.org/2000/svg"
   xmlns="http://www.w3.org/2000/svg"
   xmlns:sodipodi="http://sodipodi.sourceforge.net/DTD/sodipodi-0.dtd"
   xmlns:inkscape="http://www.inkscape.org/namespaces/inkscape"
   viewBox="0 0 24 24"
   version="1.1"
   id="svg871"
   sodipodi:docname="Capable.svg"
   inkscape:version="1.0.2 (e86c870879, 2021-01-15)">
  <metadata
     id="metadata877">
    <rdf:RDF>
      <cc:Work
         rdf:about="">
        <dc:format>image/svg+xml</dc:format>
        <dc:type
           rdf:resource="http://purl.org/dc/dcmitype/StillImage" />
        <dc:title />
      </cc:Work>
    </rdf:RDF>
  </metadata>
  <defs
     id="defs875" />
  <sodipodi:namedview
     pagecolor="#ffffff"
     bordercolor="#666666"
     borderopacity="1"
     objecttolerance="10"
     gridtolerance="10"
     guidetolerance="10"
     inkscape:pageopacity="0"
     inkscape:pageshadow="2"
     inkscape:window-width="2558"
     inkscape:window-height="1215"
     id="namedview873"
     showgrid="true"
     inkscape:zoom="23.729166"
     inkscape:cx="7.7543925"
     inkscape:cy="12.100482"
     inkscape:window-x="0"
     inkscape:window-y="0"
     inkscape:window-maximized="1"
     inkscape:current-layer="svg871"
     inkscape:document-rotation="0">
    <inkscape:grid
       type="xygrid"
       id="grid879" />
  </sodipodi:namedview>
  <path
     style="color:#000000;font-style:normal;font-variant:normal;font-weight:normal;font-stretch:normal;font-size:medium;line-height:normal;font-family:sans-serif;font-variant-ligatures:normal;font-variant-position:normal;font-variant-caps:normal;font-variant-numeric:normal;font-variant-alternates:normal;font-variant-east-asian:normal;font-feature-settings:normal;font-variation-settings:normal;text-indent:0;text-align:start;text-decoration:none;text-decoration-line:none;text-decoration-style:solid;text-decoration-color:#000000;letter-spacing:normal;word-spacing:normal;text-transform:none;writing-mode:lr-tb;direction:ltr;text-orientation:mixed;dominant-baseline:auto;baseline-shift:baseline;text-anchor:start;white-space:normal;shape-padding:0;shape-margin:0;inline-size:0;clip-rule:nonzero;display:inline;overflow:visible;visibility:visible;isolation:auto;mix-blend-mode:normal;color-interpolation:sRGB;color-interpolation-filters:linearRGB;solid-color:#000000;solid-opacity:1;vector-effect:none;fill:#000000;fill-opacity:1;fill-rule:nonzero;stroke:none;stroke-linecap:butt;stroke-linejoin:miter;stroke-miterlimit:4;stroke-dasharray:none;stroke-dashoffset:0;stroke-opacity:1;paint-order:normal;color-rendering:auto;image-rendering:auto;shape-rendering:auto;text-rendering:auto;enable-background:accumulate;stop-color:#000000;stop-opacity:1;opacity:1"
     d="M 6.3554688 2.9003906 L 6.0683594 3.6367188 C 6.0683594 3.6367188 3.1759947 10.97046 3 17.974609 L 2.9824219 18.650391 L 3.6054688 18.917969 C 7.2507731 20.486833 8.9021207 21 12 21 C 14.633333 21 16.629337 20.478625 18.066406 19.605469 C 19.503475 18.732313 20.364288 17.48031 20.607422 16.183594 C 21.093471 13.591332 19.034993 11.002337 16.003906 11 C 12.055339 10.96168 10.133093 13.306546 9.609375 14 L 9 14 L 9 7 L 10.705078 7 L 11.892578 3.6738281 L 6.3554688 2.9003906 z M 7 7.2832031 L 7 16 L 10.546875 16 L 10.841797 15.541016 C 10.841797 15.541016 12.450213 12.963031 15.990234 13 L 15.994141 13 L 16 13 C 17.966667 13 18.90631 14.409839 18.642578 15.816406 C 18.510712 16.51969 18.059025 17.267687 17.027344 17.894531 C 15.995663 18.521375 14.366667 19 12 19 C 9.3404862 19 8.0193936 18.584597 5.0742188 17.339844 C 5.2892341 13.212206 6.2114055 9.7503314 7 7.2832031 z "
     id="path70" />
</svg>
