<svg xmlns="http://www.w3.org/2000/svg" height="24" width="24"><path style="color:#000;overflow:visible;opacity:1;vector-effect:none;fill:#000;fill-opacity:1;stroke:none;stroke-width:2;stroke-linecap:butt;stroke-linejoin:miter;stroke-miterlimit:4;stroke-dasharray:none;stroke-dashoffset:0;stroke-opacity:.821002" d="m 7,4.5 c -0.554,0 -1,0.446 -1,1 v 2 H 4 v 2 H 3 c -0.554,0 -1,0.446 -1,1 0,0.554 0.446,1 1,1 h 1 v 2 h 2 v 2 c 0,0.554 0.446,1 1,1 h 4 v 2 c 0,0.554 0.446,1 1,1 h 7 c 0.554,0 1,-0.446 1,-1 v -2 h 1 c 0.554,0 1,-0.446 1,-1 v -10 c 0,-0.554 -0.446,-1 -1,-1 z m 1,2 h 12 v 8 h -1 c -0.4155,0 -0.770469,0.250219 -0.921875,0.609375 C 18.027656,15.229094 18,15.3615 18,15.5 v 2 H 17 V 16 c 0,-0.277 -0.223,-0.5 -0.5,-0.5 -0.277,0 -0.5,0.223 -0.5,0.5 v 1.5 H 15 V 16 c 0,-0.277 -0.223,-0.5 -0.5,-0.5 -0.277,0 -0.5,0.223 -0.5,0.5 v 1.5 h -1 v -2 c 0,-0.554 -0.446,-1 -1,-1 H 8 v -1 h 2 v -6 H 8 Z m -1,3 h 1 1 v 2 H 8 7 Z m 6,-1.5 2,5 h 1 L 18,8 H 17 L 15.5,11.75 14,8 Z"/></svg>