<svg xmlns="http://www.w3.org/2000/svg" height="24" width="24"><path style="color:#000;overflow:visible;opacity:1;vector-effect:none;fill:#000;fill-opacity:1;stroke:none;stroke-width:2;stroke-linecap:butt;stroke-linejoin:miter;stroke-miterlimit:4;stroke-dasharray:none;stroke-dashoffset:0;stroke-opacity:.821002" d="M7 4.5c-.554 0-1 .446-1 1v2H4v2H3c-.554 0-1 .446-1 1s.446 1 1 1h1v2h2v2c0 .554.446 1 1 1h4v2c0 .554.446 1 1 1h7c.554 0 1-.446 1-1v-2h1c.554 0 1-.446 1-1v-10c0-.554-.446-1-1-1H7zm1 2h12v8h-1a.998.998 0 0 0-1 1v2h-1V16a.499.499 0 1 0-1 0v1.5h-1V16a.499.499 0 1 0-1 0v1.5h-1v-2c0-.554-.446-1-1-1H8v-1h2v-6H8v-1zm6 2v4h4v-4h-4zm-7 1h2v2H7v-2z"/></svg>