<svg xmlns="http://www.w3.org/2000/svg" height="24" width="24"><path style="color:#000;overflow:visible;opacity:1;vector-effect:none;fill:#000;fill-opacity:1;stroke:none;stroke-width:2;stroke-linecap:butt;stroke-linejoin:miter;stroke-miterlimit:4;stroke-dasharray:none;stroke-dashoffset:0;stroke-opacity:.821002" d="M 7 4.5 C 6.446 4.5 6 4.946 6 5.5 L 6 7.5 L 4 7.5 L 4 9.5 L 3 9.5 C 2.446 9.5 2 9.946 2 10.5 C 2 11.054 2.446 11.5 3 11.5 L 4 11.5 L 4 13.5 L 6 13.5 L 6 15.5 C 6 16.054 6.446 16.5 7 16.5 L 11 16.5 L 11 18.5 C 11 19.054 11.446 19.5 12 19.5 L 19 19.5 C 19.554 19.5 20 19.054 20 18.5 L 20 16.5 L 21 16.5 C 21.554 16.5 22 16.054 22 15.5 L 22 5.5 C 22 4.946 21.554 4.5 21 4.5 L 7 4.5 z M 8 6.5 L 20 6.5 L 20 14.5 L 19 14.5 C 18.5845 14.5 18.229531 14.750219 18.078125 15.109375 C 18.027656 15.229094 18 15.3615 18 15.5 L 18 17.5 L 17 17.5 L 17 16 C 17 15.723 16.777 15.5 16.5 15.5 C 16.223 15.5 16 15.723 16 16 L 16 17.5 L 15 17.5 L 15 16 C 15 15.723 14.777 15.5 14.5 15.5 C 14.223 15.5 14 15.723 14 16 L 14 17.5 L 13 17.5 L 13 15.5 C 13 14.946 12.554 14.5 12 14.5 L 8 14.5 L 8 13.5 L 10 13.5 L 10 7.5 L 8 7.5 L 8 6.5 z M 13 8 L 13 13 L 14 13 L 14 12 L 15 12 C 16.104569 12 17 11.104569 17 10 C 17 8.895431 16.104569 8 15 8 L 13 8 z M 14 9 L 15 9 C 15.552285 9 16 9.447715 16 10 C 16 10.552285 15.552285 11 15 11 L 14 11 L 14 9 z M 7 9.5 L 8 9.5 L 9 9.5 L 9 11.5 L 8 11.5 L 7 11.5 L 7 9.5 z "/></svg>