<svg xmlns="http://www.w3.org/2000/svg" width="24" height="24"><path d="M8 4.125a3 3 0 0 0-3 3 3 3 0 0 0 2.25 2.903v3.097H2v3h21v-3h-5.25v-3.1a3 3 0 0 0 2.25-2.9 3 3 0 0 0-3-3 3 3 0 0 0-3 3 3 3 0 0 0 2.25 2.903v3.097h-7.5v-3.1a3 3 0 0 0 2.25-2.9 3 3 0 0 0-3-3m0 1.5a1.5 1.5 0 0 1 1.5 1.5 1.5 1.5 0 0 1-1.5 1.5 1.5 1.5 0 0 1-1.5-1.5 1.5 1.5 0 0 1 1.5-1.5m9 0a1.5 1.5 0 0 1 1.5 1.5 1.5 1.5 0 0 1-1.5 1.5 1.5 1.5 0 0 1-1.5-1.5 1.5 1.5 0 0 1 1.5-1.5M2.75 18.375v1.5h1.5v-1.5zm3 0v1.5h1.5v-1.5zm3 0v1.5h1.5v-1.5zm3 0v1.5h1.5v-1.5zm3 0v1.5h1.5v-1.5zm3 0v1.5h1.5v-1.5zm3 0v1.5h1.5v-1.5z" style="color:#000;clip-rule:nonzero;display:inline;overflow:visible;visibility:visible;opacity:1;isolation:auto;mix-blend-mode:normal;color-interpolation:sRGB;color-interpolation-filters:linearRGB;solid-color:#000;solid-opacity:1;vector-effect:none;fill:#000;fill-opacity:1;fill-rule:nonzero;stroke:none;stroke-width:0;stroke-linecap:butt;stroke-linejoin:miter;stroke-miterlimit:4;stroke-dasharray:none;stroke-dashoffset:0;stroke-opacity:1;marker:none;marker-start:none;marker-mid:none;marker-end:none;paint-order:normal;color-rendering:auto;image-rendering:auto;shape-rendering:auto;text-rendering:auto"/></svg>