<svg xmlns="http://www.w3.org/2000/svg" height="24" width="24"><path d="M 14.953125 2.6347656 C 14.851956 2.6370756 14.74248 2.6514495 14.623047 2.6796875 L 3 6 L 3 8 L 8 8 L 8 6 L 15 4 C 16.041617 3.7023954 15.931088 2.6123971 14.953125 2.6347656 z M 3 9 L 3 21 L 8 21 L 8 13 L 17 12 C 17 11.000002 15.999998 10 15 10 L 8 10 L 8 9 L 3 9 z M 17 13 L 15 13.222656 L 15 15 L 13 15 L 13 21 L 19 21 L 19 15 L 17 15 L 17 13 z M 15 17.148438 L 17 17.148438 L 17 20 L 15 20 L 15 17.148438 z " style="color:#000;clip-rule:nonzero;display:inline;overflow:visible;visibility:visible;opacity:1;isolation:auto;mix-blend-mode:normal;color-interpolation:sRGB;color-interpolation-filters:linearRGB;solid-color:#000;solid-opacity:1;vector-effect:none;fill:#000;fill-opacity:1;fill-rule:nonzero;stroke:none;stroke-width:1.63299322;stroke-linecap:butt;stroke-linejoin:miter;stroke-miterlimit:4;stroke-dasharray:none;stroke-dashoffset:0;stroke-opacity:1;marker:none;marker-start:none;marker-mid:none;marker-end:none;color-rendering:auto;image-rendering:auto;shape-rendering:auto;text-rendering:auto;enable-background:accumulate"/></svg>