<svg xmlns="http://www.w3.org/2000/svg" height="24" width="24"><path d="m 12,4 a 9,9 0 0 0 -9,9 v 6 h 1 2 6 6 2 1 V 13 A 9,9 0 0 0 12,4 Z m 0.5,1.0175781 a 8,8 0 0 1 3.119141,0.8476563 L 14.484375,7.5410156 A 6,6 0 0 0 12.5,7.0234375 Z m -1,0.015625 V 7.0351562 A 6,6 0 0 0 9.5136719,7.5410156 l -1.125,-1.6601562 A 8,8 0 0 1 11.5,5.0332031 Z M 16.482422,6.375 a 8,8 0 0 1 2.136719,2.1347656 L 16.818359,9.4257812 A 6,6 0 0 0 15.361328,8.03125 Z M 7.5253906,6.3886719 8.6425781,8.0390625 A 6,6 0 0 0 7.1953125,9.4296875 L 5.3964844,8.5136719 a 8,8 0 0 1 2.1289062,-2.125 z M 19.128906,9.3710938 A 8,8 0 0 1 19.935547,12 H 17.914062 A 6,6 0 0 0 17.345703,10.279297 Z M 4.8867188,9.3769531 6.6660156,10.283203 A 6,6 0 0 0 6.0917969,12 H 4.0644531 A 8,8 0 0 1 4.8867188,9.3769531 Z M 4,13 h 2 v 2 H 4 Z m 14,0 h 2 v 2 H 18 Z M 4,16 h 2 v 2 H 4 Z m 14,0 h 2 v 2 h -2 z" style="color:#000;clip-rule:nonzero;display:inline;overflow:visible;visibility:visible;opacity:1;isolation:auto;mix-blend-mode:normal;color-interpolation:sRGB;color-interpolation-filters:linearRGB;solid-color:#000;solid-opacity:1;vector-effect:none;fill:#000;fill-opacity:1;fill-rule:nonzero;stroke:none;stroke-width:1.63299322;stroke-linecap:butt;stroke-linejoin:miter;stroke-miterlimit:4;stroke-dasharray:none;stroke-dashoffset:0;stroke-opacity:1;marker:none;marker-start:none;marker-mid:none;marker-end:none;color-rendering:auto;image-rendering:auto;shape-rendering:auto;text-rendering:auto;enable-background:accumulate"/></svg>