<svg xmlns="http://www.w3.org/2000/svg" height="24" width="24"><path style="color:#000;overflow:visible;opacity:1;vector-effect:none;fill:#000;fill-opacity:1;stroke:none;stroke-width:0;stroke-linecap:butt;stroke-linejoin:miter;stroke-miterlimit:4;stroke-dasharray:none;stroke-dashoffset:0;stroke-opacity:1" d="M2 9v6h6v-2h1a1 1 0 0 0 .447-.105l1.356-.678 1.49 1.49a1 1 0 0 0 1.154.188l1.79-.895H16v2h6V9h-6v2h-1a1 1 0 0 0-.447.105l-1.356.678-1.49-1.49a1 1 0 0 0-.678-.293 1 1 0 0 0-.476.105L8.763 11H8V9H2zm1 2h2.852v2H3v-2zm15.148 0H21v2h-2.852v-2z"/></svg>