<svg width="24" height="24" viewBox="0 0 6.35 6.35" xmlns="http://www.w3.org/2000/svg"><path d="M5.73 4.53a.4.4 0 01-.06-.12l-.02-.04-.03.03c-.06.11-.07.12-.1.1-.01-.02 0-.03.03-.1l.06-.1.04-.05c.03 0 .04.01.06.09l.04.12c.03.05.03.07 0 .08h-.02zm-.75-.06c-.02-.01-.01-.03.01-.05.03-.02.05-.06.08-.14.03-.08.05-.1.08-.07l.02.07c.02.1.03.12.05.13.05.02.04.07-.01.07-.04 0-.06-.03-.09-.12 0-.02-.01 0-.04.04a.36.36 0 01-.04.07c-.02.02-.05.02-.06 0zm-.48-.03c-.01-.01 0-.03.01-.06l.07-.13c.06-.1.07-.13.1-.12.02.02.03.04.04.1.01.08.02.11.04.14v.04c-.01.02-.04.02-.06 0l-.03-.1-.01-.05-.06.09a.46.46 0 01-.05.08c-.02.02-.04.02-.05 0zm.08-.75a.05.05 0 01-.01-.04L4.5 3.5l-.02-.04h.03c.03-.02.03-.01.08.07l.03.05.07-.13c0-.03 0-.03.02-.04.03 0 .04 0 .04.02a.6.6 0 01-.12.26c-.03.02-.03.02-.05 0zm.54-.1c-.01-.02-.02-.03-.02-.08a.44.44 0 00-.03-.08c-.02-.05-.02-.08 0-.08.05-.01.06 0 .06.04l.03.08c.02 0 .06-.08.07-.12l.01-.02.06-.01-.12.26h-.06zm.47-.08l-.02-.09a.55.55 0 00-.02-.12c0-.02 0-.02.02-.02h.03l.02.11v.03c.01 0 .04-.03.06-.07l.05-.09c.02-.02.06-.02.06 0l-.14.25c-.01.01-.05.02-.06 0zm-.76-.41c-.06-.03-.08-.14-.05-.2l.04-.03c.03-.02.03-.02.07-.02.06 0 .09.01.12.05.03.05.02.12-.03.16-.05.05-.1.06-.15.04zm.35-.05A.13.13 0 015.14 3l-.01-.05c0-.04 0-.05.06-.1l.06-.02c.07 0 .11.05.1.12l-.01.06c-.04.04-.12.05-.16.03z"/><path d="M3.84 5.48c-.17-.21-.04-.5-.06-.74.05-.83.1-1.66.07-2.5.17-.14.44.08.59-.02-.22-.13-.54-.13-.8-.14-.14.09-.5.02-.5.17.2.08.53-.15.64.02-.01.81-.03 1.62-.1 2.42-.05.23.07.56-.14.72a9.51 9.51 0 01-.66-.53c.13-.04.32-.4.1-.2-.21.22-.51.27-.79.35-.12.08-.54.12-.32-.11.2-.22.45-.42.5-.72-.13-.12-.1.3-.25.08-.23-.16-.43-.35-.67-.5-.21.12-.45.23-.7.29-.17.1-.61.14-.32-.14.2-.2.43-.42.4-.72.03-.31-.08-.61-.2-.89a2.07 2.07 0 00-.43-.64c-.18-.16-.02-.3.16-.19.37.17.7.4.98.7.09.17.13.4.36.25.44-.08.9-.1 1.34-.21.13-.3.04-.64-.12-.91 0-.17-.42-.38-.22-.46.38.1.77.23 1.08.48.32.19.64.45.69.84.1.18.5.12.71.19.33.04.66.09 1 .09.15.12-.08.47 0 .68-.08.15-.4.07-.59.14-.12.13-.14.43-.15.64-.05.15.18.48.06.5a1.4 1.4 0 010-1.1c-.2-.06-.33.06-.53.04-.23.04-.45.1-.68.12-.13.2-.23.54-.06.75.13.19.3.2.48.2.18.03.36.05.55.04.18-.01.36.07.52.05.2.01.1.4.07.52-.38.07-.76.16-1.14.25-.3.04-.58.14-.87.19zm.42-.38c.08-.1.02-.54-.04-.24 0 .06-.1.3.04.24zm.58-.1c.09-.12-.04-.42-.07-.14-.02.06-.02.2.07.14zm.56-.06c.12-.14-.08-.34-.08-.08-.01.04.02.13.08.08zm-2.17-.6c.03-.25.02-.52.06-.79.02-.25.05-.5 0-.75-.09.2-.03.48-.09.7-.02.28-.08.57-.04.85.02.02.05.02.07 0zm-.67-.27c.09-.3.07-.63.08-.94-.01-.12.01-.47-.1-.4.03.43.03.88-.06 1.32 0 .03.05.05.08.02zm-.6-.5c.1-.24.14-.53.1-.79-.14 0-.03.36-.1.5.01.06-.13.32 0 .3zm-.43-.2c.04-.16.15-.5 0-.57.05.18-.12.45-.03.58l.03-.01zm3.43-.22c.22-.13 0-.66-.22-.35-.1.15 0 .42.22.35zm.34-.06c.28 0 .18-.53-.09-.34-.12.07-.12.42.09.34zm.44-.01c-.01-.1.12-.38-.01-.4-.02.1-.17.41 0 .4zm-1.26-.02c0-.13.02-.55-.14-.5.08.12-.02.51.14.5z"/><path d="M5.53 3.27l-.25.03a.57.57 0 01-.13.24l-.06-.2-.37.04c0 .1-.03.19-.1.28l-.13-.24-.22.03s-.15.28-.15.46.07.46.37.53h.03l.15-.25.08.28.25.02.12-.2c.05.1.1.2.12.2l.3.02v-.08s-.12-.25-.12-.39c-.02-.27.11-.77.11-.77z" fill-opacity=".5"/></svg>