<?xml version="1.0" encoding="UTF-8" standalone="no"?>
<!-- Created with Inkscape (http://www.inkscape.org/) -->

<svg
   width="24"
   height="24"
   viewBox="0 0 6.3499999 6.3500002"
   version="1.1"
   id="svg5"
   inkscape:version="1.1 (c68e22c387, 2021-05-23)"
   sodipodi:docname="petrolshark.svg"
   inkscape:export-xdpi="1200"
   inkscape:export-ydpi="1200"
   xmlns:inkscape="http://www.inkscape.org/namespaces/inkscape"
   xmlns:sodipodi="http://sodipodi.sourceforge.net/DTD/sodipodi-0.dtd"
   xmlns:xlink="http://www.w3.org/1999/xlink"
   xmlns="http://www.w3.org/2000/svg"
   xmlns:svg="http://www.w3.org/2000/svg">
  <sodipodi:namedview
     id="namedview7"
     pagecolor="#505050"
     bordercolor="#eeeeee"
     borderopacity="1"
     inkscape:pageshadow="0"
     inkscape:pageopacity="0"
     inkscape:pagecheckerboard="0"
     inkscape:document-units="mm"
     showgrid="false"
     inkscape:zoom="45.254834"
     inkscape:cx="10.297243"
     inkscape:cy="12.738971"
     inkscape:window-width="2560"
     inkscape:window-height="1377"
     inkscape:window-x="-8"
     inkscape:window-y="-8"
     inkscape:window-maximized="1"
     inkscape:current-layer="layer1"
     fit-margin-top="0"
     fit-margin-left="0"
     fit-margin-right="0"
     fit-margin-bottom="0"
     units="px"
     width="24px" />
  <defs
     id="defs2">
    <linearGradient
       inkscape:collect="always"
       id="linearGradient11634">
      <stop
         style="stop-color:#009a9a;stop-opacity:1"
         offset="0"
         id="stop12212" />
      <stop
         style="stop-color:#00e5db;stop-opacity:1"
         offset="1"
         id="stop12214" />
    </linearGradient>
    <linearGradient
       inkscape:collect="always"
       xlink:href="#linearGradient11634"
       id="linearGradient12180"
       gradientUnits="userSpaceOnUse"
       x1="86.261581"
       y1="225.58818"
       x2="79.950943"
       y2="177.26372"
       gradientTransform="matrix(0.08004617,0,0,0.08004617,39.551507,147.75728)" />
  </defs>
  <g
     inkscape:label="Ebene 1"
     inkscape:groupmode="layer"
     id="layer1"
     transform="translate(-43.029861,-160.62886)">
    <path
       style="fill:#ffffff;stroke:none;stroke-width:0.0134444px;stroke-linecap:butt;stroke-linejoin:miter;stroke-opacity:1"
       d="m 49.209132,163.12891 -0.900773,-0.0807 -0.85372,-0.13108 0.0269,-0.10418 -0.110916,-0.0807 -0.668857,-0.0806 -0.568026,0.1378 -0.04706,0.14117 -1.620048,0.37644 -0.05378,0.77641 0.835843,0.82753 v 0.0619 l 0.103385,0.075 0.549007,0.47652 0.39809,0.10342 0.276881,0.40759 0.08913,0.0511 0.118832,0.0356 0.0606,-9.9e-4 0.05347,-0.01 0.251926,-0.0986 0.87342,-0.18656 0.73914,-0.14973 0.01426,-0.53475 -0.08675,-0.19489 -0.117645,0.15805 -0.31966,-0.0369 -0.09149,-0.1628 -0.127151,0.17706 -0.275693,-0.0571 -0.05109,-0.20916 -0.152105,0.22936 -0.433739,-0.0488 0.04396,-0.93876 0.364818,9.9e-4 0.106949,0.23647 0.133094,-0.2745 0.330354,-0.0558 0.07486,0.23054 0.139033,-0.26262 0.285199,-0.0452 0.04753,0.23766 0.191321,-0.30065 z"
       id="path9589" />
    <path
       id="path265"
       style="fill:#f2a1a7;stroke-width:0.00633694"
       d="m 48.511191,163.9399 c -0.05711,0.01 -0.135427,0.008 -0.187708,0.0335 -0.03114,0.0383 -0.03514,0.0883 -0.0614,0.13019 -0.02312,0.0379 -0.02675,0.0826 -0.06252,0.11012 -0.04602,0.0123 -0.07137,-0.0284 -0.06701,-0.0672 -0.0048,-0.0354 -0.01235,-0.0738 -0.03363,-0.10309 -0.03675,-0.0171 -0.07973,0.002 -0.118552,0.002 -0.05983,0.01 -0.147266,-0.006 -0.20483,0.014 -0.0309,0.0341 -0.03214,0.0855 -0.05437,0.12523 -0.02474,0.0481 -0.04209,0.11008 -0.09319,0.13638 -0.012,-0.0264 -0.02166,-0.0315 -0.02983,-0.06 -0.01652,-0.0479 -0.0374,-0.10012 -0.0774,-0.13281 -0.04384,0.002 -0.08018,0.0373 -0.122502,0.049 -0.0453,0.0219 -0.104186,0.0251 -0.142469,0.059 -0.04318,0.0938 -0.02803,0.205 -0.05295,0.30353 -0.0038,0.0477 -0.02667,0.0974 -0.0056,0.14395 0.04724,0.0496 0.07031,0.11506 0.1049,0.17289 0.0461,0.0541 0.107914,0.0924 0.165875,0.13246 0.02562,0.0159 0.05683,0.0155 0.08561,0.0206 0.04241,-0.0788 0.07234,-0.1659 0.127431,-0.23709 0.02787,-0.0291 0.06972,0.003 0.07235,0.0372 0.0162,0.0697 0.01593,0.14593 0.05441,0.20828 -0.0027,0.0371 0.03376,0.0228 0.05772,0.025 h 0.172806 c 0.03987,-0.0626 0.05797,-0.13622 0.09676,-0.19889 0.02402,-0.0299 0.06602,-0.006 0.06945,0.0278 0.01999,0.051 0.01514,0.11134 0.04419,0.15833 0.02187,0.0135 0.03435,0.0385 0.05488,0.0515 0.07405,0.0147 0.150316,0.0162 0.22479,0.0272 0.03141,0.004 0.0207,-0.0258 0.01142,-0.0436 -0.06785,-0.16418 -0.125034,-0.33771 -0.120697,-0.51687 0.0021,-0.12906 0.01352,-0.25854 0.04021,-0.3853 0.01838,-0.0736 0.06212,-0.14324 0.07292,-0.2182 0.0022,-0.009 -0.01658,-0.004 -0.02101,-0.006 z"
       sodipodi:nodetypes="cccccccccccccccccccccccccccccccccsc" />
    <path
       style="fill:#111313;stroke-width:0.00633694"
       d="m 48.762518,165.16329 c -0.01253,-0.008 -0.04468,-0.0731 -0.06172,-0.12618 -0.0061,-0.0192 -0.01507,-0.0356 -0.01982,-0.0365 -0.0047,-9.5e-4 -0.01669,0.0119 -0.02651,0.0285 -0.06531,0.11051 -0.07863,0.12319 -0.102059,0.0973 -0.0155,-0.0171 -0.01086,-0.0314 0.02971,-0.0924 0.01858,-0.0279 0.04579,-0.0725 0.06045,-0.099 0.01765,-0.032 0.03143,-0.0497 0.04078,-0.0521 0.02671,-0.007 0.0377,0.009 0.05655,0.0811 0.0098,0.0376 0.02943,0.0923 0.04359,0.12134 0.02674,0.055 0.02726,0.0716 0.0026,0.0812 -0.01218,0.004 -0.0099,0.006 -0.02352,-0.003 z m -0.755123,-0.0601 c -0.01587,-0.0159 -0.01169,-0.034 0.01284,-0.0555 0.02609,-0.0229 0.04539,-0.0582 0.0765,-0.14002 0.02988,-0.0785 0.05352,-0.0967 0.08373,-0.0646 0.0098,0.01 0.0172,0.0315 0.02396,0.0681 0.0179,0.0967 0.02575,0.1184 0.04692,0.12935 0.04486,0.0232 0.03539,0.0663 -0.01458,0.0663 -0.04166,0 -0.05893,-0.0242 -0.08469,-0.11881 -0.0048,-0.0177 -0.01637,-0.006 -0.04094,0.0435 -0.01421,0.0283 -0.03266,0.0582 -0.04097,0.0665 -0.01755,0.0175 -0.0479,0.0201 -0.06278,0.006 z m -0.477622,-0.0356 c -0.01229,-0.0123 -0.009,-0.0272 0.01376,-0.0609 0.01176,-0.0174 0.04322,-0.0762 0.06994,-0.13055 0.05245,-0.10671 0.06812,-0.12515 0.09556,-0.11264 0.02384,0.011 0.03416,0.0325 0.04138,0.0871 0.01117,0.0844 0.01964,0.11888 0.03614,0.14713 0.01494,0.0255 0.01524,0.0279 0.0054,0.0428 -0.0137,0.021 -0.03791,0.0205 -0.05786,-9.9e-4 -0.01662,-0.0179 -0.02553,-0.0446 -0.03543,-0.10605 -0.0034,-0.0212 -0.0076,-0.0399 -0.0091,-0.0414 -0.0059,-0.006 -0.02078,0.0167 -0.05605,0.085 -0.01979,0.0384 -0.04311,0.0761 -0.05184,0.084 -0.01738,0.0157 -0.04004,0.0185 -0.05192,0.007 z m 0.084,-0.74938 c -0.01031,-0.01 -0.01555,-0.0227 -0.01555,-0.0366 0,-0.0255 -0.03499,-0.10035 -0.07077,-0.1514 -0.01444,-0.0206 -0.02448,-0.0392 -0.02234,-0.0413 0.0022,-0.002 0.01612,-0.007 0.03108,-0.009 0.03238,-0.007 0.03648,-0.002 0.08105,0.078 0.01568,0.0283 0.03143,0.0524 0.03499,0.0536 0.01019,0.003 0.05973,-0.0992 0.06421,-0.13314 0.0033,-0.0246 0.007,-0.0317 0.01937,-0.0364 0.02988,-0.0114 0.03986,-0.008 0.03976,0.0148 -2.4e-4,0.0592 -0.08077,0.24342 -0.115701,0.26471 -0.02591,0.0158 -0.02735,0.0157 -0.04609,-0.003 z m 0.533052,-0.10846 c -0.01075,-0.011 -0.01359,-0.021 -0.01891,-0.0675 -0.0019,-0.0164 -0.01231,-0.053 -0.02319,-0.0812 -0.02163,-0.0561 -0.02111,-0.0783 0.002,-0.0845 0.03857,-0.01 0.05498,9e-4 0.056,0.0384 7.21e-4,0.027 0.02155,0.081 0.03199,0.0831 0.01042,0.002 0.05859,-0.0841 0.06551,-0.11699 0.0023,-0.0111 0.0078,-0.0231 0.01205,-0.0266 0.0099,-0.008 0.06107,-0.0167 0.06107,-0.01 0,0.0223 -0.101402,0.23381 -0.128324,0.26763 -0.0089,0.0112 -0.04628,0.01 -0.05816,-0.002 z m 0.471571,-0.0693 c -0.0044,-0.006 -0.01188,-0.0454 -0.01669,-0.0893 -0.0048,-0.0439 -0.01155,-0.085 -0.01499,-0.0914 -0.0034,-0.007 -0.0062,-0.0201 -0.0062,-0.0303 0,-0.0159 0.003,-0.0192 0.0202,-0.0228 0.0111,-0.002 0.0223,-0.002 0.02486,8e-4 0.0049,0.006 0.01588,0.0608 0.02184,0.11098 0.0021,0.0174 0.0068,0.03 0.01126,0.03 0.0043,0 0.02738,-0.0334 0.05147,-0.0744 0.02409,-0.041 0.04799,-0.0795 0.05312,-0.0855 0.01252,-0.0149 0.05806,-0.0155 0.05806,-8.6e-4 0,0.009 -0.115578,0.21004 -0.142551,0.248 -0.01197,0.0169 -0.04787,0.0197 -0.0603,0.004 z m -0.759419,-0.41306 c -0.05745,-0.0283 -0.08299,-0.13911 -0.04452,-0.19314 0.0074,-0.011 0.02502,-0.0273 0.03902,-0.0375 0.02225,-0.0161 0.03097,-0.0184 0.06913,-0.0184 0.0538,0 0.08616,0.0148 0.112946,0.0518 0.03426,0.0473 0.02323,0.11459 -0.02646,0.16137 -0.04664,0.0439 -0.105337,0.058 -0.150112,0.0359 z m 0.347488,-0.0516 c -0.01214,-0.007 -0.02874,-0.0213 -0.0369,-0.0332 -0.01234,-0.0179 -0.0144,-0.0277 -0.01228,-0.0576 0.0029,-0.0401 0.0089,-0.0493 0.05777,-0.0883 0.02581,-0.0205 0.03536,-0.0243 0.0602,-0.0243 0.07096,3.4e-4 0.119297,0.0503 0.113719,0.11759 -0.0023,0.0283 -0.0066,0.0386 -0.02299,0.0555 -0.03804,0.0393 -0.115274,0.054 -0.159523,0.0305 z"
       id="path257" />
    <path
       style="fill:url(#linearGradient12180);fill-opacity:1;stroke-width:0.00633694"
       d="m 46.870161,166.10863 c -0.167916,-0.21156 -0.04441,-0.49085 -0.06182,-0.7351 0.05407,-0.83261 0.09727,-1.66826 0.07232,-2.50198 0.170009,-0.1415 0.43651,0.0811 0.586636,-0.0264 -0.220757,-0.12354 -0.541182,-0.12807 -0.804438,-0.13203 -0.129431,0.085 -0.499617,0.0118 -0.489269,0.169 0.192912,0.079 0.52209,-0.15391 0.633567,0.0217 -0.01098,0.80684 -0.02854,1.61386 -0.09683,2.4183 -0.05304,0.22947 0.06793,0.56074 -0.138817,0.7131 -0.225523,-0.15804 -0.479385,-0.37018 -0.664839,-0.52866 0.129316,-0.0338 0.326459,-0.39666 0.09613,-0.19292 -0.205919,0.21588 -0.505633,0.26743 -0.779602,0.34378 -0.123563,0.0847 -0.540393,0.12525 -0.320069,-0.11315 0.20005,-0.211 0.44832,-0.41135 0.489848,-0.71906 -0.127611,-0.11993 -0.100096,0.29945 -0.241514,0.0792 -0.233794,-0.15161 -0.434236,-0.34954 -0.668473,-0.49969 -0.217287,0.12458 -0.45004,0.23176 -0.695841,0.29314 -0.180036,0.0932 -0.618642,0.13763 -0.322439,-0.14056 0.200494,-0.19018 0.426636,-0.4208 0.396139,-0.72212 0.02621,-0.30698 -0.07803,-0.60594 -0.193666,-0.88547 -0.110166,-0.2375 -0.24839,-0.45974 -0.43899,-0.64083 -0.177924,-0.15649 -0.021,-0.30104 0.159807,-0.19012 0.36915,0.16865 0.709249,0.40694 0.985849,0.7048 0.08228,0.16109 0.128454,0.38657 0.354009,0.24604 0.444847,-0.0773 0.898084,-0.10473 1.337891,-0.21078 0.138449,-0.30208 0.04399,-0.63893 -0.11447,-0.91212 -0.004,-0.16692 -0.420012,-0.37801 -0.223534,-0.46111 0.381587,0.1032 0.767566,0.23326 1.08335,0.48043 0.314467,0.19327 0.639365,0.45679 0.688706,0.84763 0.09836,0.17456 0.495256,0.11538 0.711338,0.18418 0.329611,0.0407 0.659862,0.0863 0.990337,0.0904 0.162288,0.11913 -0.07461,0.46976 0.0053,0.67582 -0.08052,0.15624 -0.406158,0.0725 -0.582085,0.14211 -0.12609,0.13397 -0.14604,0.43447 -0.156898,0.64368 -0.05037,0.15305 0.177414,0.48159 0.06581,0.50101 -0.163948,-0.34604 -0.142534,-0.7544 -0.0048,-1.1047 -0.199476,-0.0576 -0.3339,0.0633 -0.52985,0.0452 -0.225717,0.0367 -0.446961,0.0914 -0.674352,0.11833 -0.136757,0.20727 -0.239641,0.53662 -0.06591,0.75147 0.13149,0.18387 0.296844,0.20275 0.478149,0.1987 0.184839,0.0282 0.364154,0.052 0.551223,0.0358 0.182738,-0.0113 0.360745,0.069 0.520296,0.0527 0.204258,0.0123 0.107224,0.40709 0.07072,0.52002 -0.382744,0.0738 -0.761797,0.16507 -1.143096,0.24666 -0.292285,0.0451 -0.580505,0.14083 -0.865866,0.19381 z m 0.422663,-0.37751 c 0.07473,-0.0993 0.02183,-0.54095 -0.04742,-0.2398 0.0021,0.0545 -0.08629,0.30651 0.04742,0.2398 z m 0.581099,-0.0984 c 0.08177,-0.12167 -0.04842,-0.42565 -0.07285,-0.14139 -0.02191,0.0543 -0.01819,0.19668 0.07285,0.14139 z m 0.558244,-0.0591 c 0.118482,-0.14578 -0.07779,-0.346 -0.07814,-0.0876 -0.01377,0.0476 0.01225,0.13706 0.07814,0.0876 z m -2.176917,-0.59723 c 0.039,-0.25792 0.02733,-0.53094 0.06487,-0.79326 0.02461,-0.24955 0.05277,-0.50846 -0.0062,-0.75443 -0.08399,0.20164 -0.02008,0.47745 -0.07932,0.70388 -0.02424,0.2792 -0.08617,0.56891 -0.04659,0.84461 0.01725,0.0203 0.05062,0.02 0.0673,-8.1e-4 z m -0.665826,-0.28053 c 0.09062,-0.30071 0.0701,-0.62864 0.07767,-0.94182 -0.01053,-0.11075 0.01637,-0.46235 -0.09302,-0.40392 0.02526,0.4419 0.02771,0.89042 -0.06609,1.32507 0.0098,0.033 0.05581,0.0559 0.08145,0.0207 z m -0.590676,-0.49249 c 0.08599,-0.24568 0.128267,-0.52961 0.09693,-0.7926 -0.148326,-4e-4 -0.03416,0.35708 -0.112158,0.4897 0.01826,0.0713 -0.126919,0.33245 0.01524,0.3029 z m -0.443406,-0.20771 c 0.04683,-0.15603 0.155084,-0.49152 -0.003,-0.56973 0.0577,0.18645 -0.111007,0.4544 -0.02,0.58561 l 0.02295,-0.0159 z m 3.432945,-0.21889 c 0.224328,-0.12854 -0.0019,-0.65959 -0.218363,-0.35221 -0.103802,0.15069 0.0081,0.42906 0.218363,0.35221 z m 0.341842,-0.054 c 0.281774,-0.007 0.179706,-0.53628 -0.08643,-0.34612 -0.124273,0.077 -0.123779,0.41726 0.08643,0.34612 z m 0.435165,-0.0143 c -0.0099,-0.10484 0.123892,-0.38431 -0.0064,-0.39665 -0.0165,0.0978 -0.166309,0.40754 0.0064,0.39665 z m -1.252515,-0.015 c -0.0013,-0.13866 0.01595,-0.55113 -0.147084,-0.50381 0.08565,0.12074 -0.01912,0.51195 0.147084,0.50381 z"
       id="path259"
       sodipodi:nodetypes="cssssssssccccsscssssscsscccsssssscsssscssssssscssssssssssssssssssssssssssssssssscsssssssssssssssssssssscsssscsssscssssscssssssccsssscscscsssssssssssssssssssssssssscssssssssssssssssssssssssssssscssssssscscsccssssssssscccsssssssccsssssssssssscsssssssssscsscsssssssssscccssssssssccssssssssscsssscssscsssssssssssssscscsssssscssssssss"
       inkscape:export-xdpi="96"
       inkscape:export-ydpi="96" />
    <path
       style="fill:#a49498;stroke-width:0.00633694"
       d="m 47.811412,165.03394 h 0.107267 0.107269 c 0.0122,-3.2e-4 -0.0057,0.0137 -0.0057,0.0137 -0.01314,0.0116 -0.02279,0.026 -0.02279,0.034 0,0.011 0.0024,0.0161 -0.0068,0.015 -0.0093,-9.9e-4 -0.05744,-0.0129 -0.09887,-0.0151 -0.110866,-0.006 -0.114326,-0.009 -0.09674,-0.0453 z"
       id="path6237" />
    <path
       style="fill:#a49498;stroke-width:0.00633694"
       d="m 47.500854,164.08601 c -0.0047,1.5e-4 -0.04311,0.006 -0.08715,0.0114 l -0.08781,0.012 -0.02563,0.033 c -0.01519,0.0174 -0.03793,0.0567 -0.04988,0.0781 -0.03141,0.0562 -0.06712,0.21294 -0.08239,0.34984 -0.0067,0.0599 -0.0029,0.0775 0.0057,0.11833 0.01395,0.0666 0.02135,0.0892 0.07467,0.16012 0.06916,0.0922 0.104241,0.12376 0.173911,0.15489 0.03236,0.0144 0.06595,0.0249 0.08369,0.0263 0.02647,0.002 0.02308,5.6e-4 0.04149,-0.0284 l -0.03627,-0.006 c -0.03735,-0.006 -0.04431,-0.009 -0.112884,-0.0599 -0.09317,-0.0692 -0.09756,-0.0741 -0.130112,-0.14377 -0.01722,-0.0369 -0.04948,-0.0719 -0.056,-0.0926 -0.01559,-0.0495 -0.0316,-0.036 -0.0069,-0.16341 0.01042,-0.0537 0.01901,-0.11763 0.01906,-0.14204 1.04e-4,-0.0478 0.01801,-0.13386 0.03235,-0.15542 0.0059,-0.009 0.03317,-0.0214 0.08171,-0.0375 0.04008,-0.0133 0.09141,-0.0344 0.114068,-0.047 0.02265,-0.0126 0.0673,-0.0252 0.07457,-0.0253 -0.01465,-0.0214 -0.02561,-0.042 -0.02571,-0.0425 -7e-6,-5e-5 -1.6e-4,-6e-5 -4.71e-4,-5e-5 z"
       id="path9170" />
    <path
       style="fill:#a49498;stroke-width:0.00633694"
       d="m 48.024539,163.98474 c -0.03027,9e-5 -0.07449,0.0128 -0.14451,0.0258 -0.09886,0.0182 -0.104384,0.0261 -0.104482,0.0493 l 0.02416,0.0134 c 0.014,-0.006 0.04816,-0.01 0.188222,-0.0255 0.09846,-0.0151 0.104922,-0.004 0.106796,-0.0204 -0.01463,-0.035 -0.02694,-0.0426 -0.07017,-0.0425 z"
       id="path9168"
       sodipodi:nodetypes="csccccc" />
    <path
       style="fill:#a49498;stroke-width:0.00633694"
       d="m 48.475701,163.91705 c -0.02632,1e-5 -0.135011,0.017 -0.138722,0.0214 -5.6e-4,6.7e-4 -0.0064,0.0172 -0.0135,0.035 0.01752,0.008 0.08513,-0.0137 0.120658,-0.0209 0.03482,-0.007 0.06902,-0.0144 0.07026,-0.0158 0.0078,-0.008 -0.01333,-0.0199 -0.03871,-0.0199 z"
       id="path261"
       sodipodi:nodetypes="ssccss" />
  </g>
</svg>
