<svg xmlns="http://www.w3.org/2000/svg" width="24" height="24"><path d="M11.99 1.96C6.47 1.96 2 6.44 2 11.96s4.47 10 9.99 10c5.53 0 10.01-4.48 10.01-10s-4.48-10-10.01-10m6.93 6h-2.95a15.7 15.7 0 0 0-1.38-3.56 8.03 8.03 0 0 1 4.33 3.56M12 4c.83 1.2 1.48 2.53 1.91 3.96h-3.82C10.52 6.53 11.17 5.2 12 4m-7.74 9.96c-.16-.64-.26-1.31-.26-2s.1-1.36.26-2h3.38c-.08.66-.14 1.32-.14 2s.06 1.34.14 2zm.82 2h2.95c.32 1.25.78 2.45 1.38 3.56a8 8 0 0 1-4.33-3.56m2.95-8H5.08A8 8 0 0 1 9.41 4.4a15.7 15.7 0 0 0-1.38 3.56M12 19.92c-.83-1.2-1.48-2.53-1.91-3.96h3.82c-.43 1.43-1.08 2.76-1.91 3.96m2.34-5.96H9.66c-.09-.66-.16-1.32-.16-2s.07-1.35.16-2h4.68c.09.65.16 1.32.16 2s-.07 1.34-.16 2m.25 5.56c.6-1.11 1.06-2.31 1.38-3.56h2.95a8.03 8.03 0 0 1-4.33 3.56m1.77-5.56c.08-.66.14-1.32.14-2s-.06-1.34-.14-2h3.38c.16.64.26 1.31.26 2s-.1 1.36-.26 2z"/></svg>