<svg xmlns="http://www.w3.org/2000/svg" height="24" width="24"><path style="color:#000;overflow:visible;opacity:1;vector-effect:none;fill:#000;fill-opacity:1;stroke:#fff;stroke-width:0;stroke-linecap:butt;stroke-linejoin:miter;stroke-miterlimit:4;stroke-dasharray:none;stroke-dashoffset:0;stroke-opacity:1" d="M12 2A10 10 0 0 0 2 12a10 10 0 0 0 10 10 10 10 0 0 0 10-10A10 10 0 0 0 12 2zm0 2a8 8 0 0 1 8 8 8 8 0 0 1-8 8 8 8 0 0 1-8-8 8 8 0 0 1 8-8zm-.05 5A3 3 0 0 0 9 12a3 3 0 0 0 3 3 3 3 0 0 0 3-3 3 3 0 0 0-3-3 3 3 0 0 0-.05 0z"/></svg>