<svg xmlns="http://www.w3.org/2000/svg" height="24" width="24"><path d="M11.99 1.96C6.47 1.96 2 6.44 2 11.96s4.47 10 9.99 10c5.53 0 10.01-4.48 10.01-10s-4.48-10-10.01-10zM12 4c.83 1.2 1.48 2.53 1.91 3.96h-3.82C10.52 6.53 11.17 5.2 12 4zm-2.59.4c-.6 1.11-1.06 2.31-1.38 3.56H5.08A7.988 7.988 0 0 1 9.41 4.4zm5.18 0a8.03 8.03 0 0 1 4.33 3.56h-2.95c-.32-1.25-.78-2.45-1.38-3.56zM4.26 9.96h3.38c-.08.66-.14 1.32-.14 2 0 .68.06 1.34.14 2H4.26c-.16-.64-.26-1.31-.26-2s.1-1.36.26-2zm.82 6h2.95c.32 1.25.78 2.45 1.38 3.56a7.985 7.985 0 0 1-4.33-3.56zm5.01 0h3.82A14.081 14.081 0 0 1 12 19.92c-.83-1.2-1.48-2.53-1.91-3.96z"/></svg>