<?xml version="1.0" encoding="UTF-8" standalone="no"?>
<svg
   xmlns:dc="http://purl.org/dc/elements/1.1/"
   xmlns:cc="http://creativecommons.org/ns#"
   xmlns:rdf="http://www.w3.org/1999/02/22-rdf-syntax-ns#"
   xmlns:svg="http://www.w3.org/2000/svg"
   xmlns="http://www.w3.org/2000/svg"
   xmlns:sodipodi="http://sodipodi.sourceforge.net/DTD/sodipodi-0.dtd"
   xmlns:inkscape="http://www.inkscape.org/namespaces/inkscape"
   height="24"
   viewBox="0 0 24 24"
   width="24"
   version="1.1"
   id="svg6"
   sodipodi:docname="DefaultRoute.svg"
   inkscape:version="0.92.5 (2060ec1f9f, 2020-04-08)">
  <metadata
     id="metadata12">
    <rdf:RDF>
      <cc:Work
         rdf:about="">
        <dc:format>image/svg+xml</dc:format>
        <dc:type
           rdf:resource="http://purl.org/dc/dcmitype/StillImage" />
        <dc:title></dc:title>
      </cc:Work>
    </rdf:RDF>
  </metadata>
  <defs
     id="defs10" />
  <sodipodi:namedview
     pagecolor="#ffffff"
     bordercolor="#666666"
     borderopacity="1"
     objecttolerance="10"
     gridtolerance="10"
     guidetolerance="10"
     inkscape:pageopacity="0"
     inkscape:pageshadow="2"
     inkscape:window-width="1709"
     inkscape:window-height="1083"
     id="namedview8"
     showgrid="true"
     inkscape:pagecheckerboard="false"
     showguides="true"
     inkscape:zoom="27.812867"
     inkscape:cx="13.727044"
     inkscape:cy="12.869699"
     inkscape:window-x="278"
     inkscape:window-y="188"
     inkscape:window-maximized="0"
     inkscape:current-layer="svg6">
    <inkscape:grid
       type="xygrid"
       id="grid4526" />
  </sodipodi:namedview>
  <path
     inkscape:connector-curvature="0"
     d="M 11.99,1.96 C 6.47,1.96 2,6.44 2,11.96 c 0,5.52 4.47,10 9.99,10 5.53,0 10.01,-4.48 10.01,-10 0,-5.52 -4.48,-10 -10.01,-10 z m 6.93,6 H 15.97 C 15.65,6.71 15.19,5.51 14.59,4.4 c 1.84,0.63 3.37,1.91 4.33,3.56 z M 12,4 c 0.83,1.2 1.48,2.53 1.91,3.96 H 10.09 C 10.52,6.53 11.17,5.2 12,4 Z M 4.26,13.96 C 4.1,13.32 4,12.65 4,11.96 4,11.27 4.1,10.6 4.26,9.96 h 3.38 c -0.08,0.66 -0.14,1.32 -0.14,2 0,0.68 0.06,1.34 0.14,2 z m 0.82,2 h 2.95 c 0.32,1.25 0.78,2.45 1.38,3.56 -1.84,-0.63 -3.37,-1.9 -4.33,-3.56 z m 2.95,-8 H 5.08 C 6.04,6.3 7.57,5.03 9.41,4.4 8.81,5.51 8.35,6.71 8.03,7.96 Z M 12,19.92 c -0.83,-1.2 -1.48,-2.53 -1.91,-3.96 h 3.82 c -0.43,1.43 -1.08,2.76 -1.91,3.96 z m 2.34,-5.96 H 9.66 C 9.57,13.3 9.5,12.64 9.5,11.96 c 0,-0.68 0.07,-1.35 0.16,-2 h 4.68 c 0.09,0.65 0.16,1.32 0.16,2 0,0.68 -0.07,1.34 -0.16,2 z m 0.25,5.56 c 0.6,-1.11 1.06,-2.31 1.38,-3.56 h 2.95 c -0.96,1.65 -2.49,2.93 -4.33,3.56 z m 1.77,-5.56 c 0.08,-0.66 0.14,-1.32 0.14,-2 0,-0.68 -0.06,-1.34 -0.14,-2 h 3.38 c 0.16,0.64 0.26,1.31 0.26,2 0,0.69 -0.1,1.36 -0.26,2 z"
     id="path4" />
</svg>
