<svg height="24" width="24" xmlns="http://www.w3.org/2000/svg"><path style="stroke-width:.025" d="M5 3c-.55 0-1.02.196-1.412.588A1.925 1.925 0 0 0 3 5v14c0 .55.196 1.02.588 1.412C3.98 20.804 4.45 21 5 21h14c.55 0 1.02-.196 1.412-.588.392-.392.588-.862.588-1.412V5c0-.55-.196-1.02-.588-1.412A1.925 1.925 0 0 0 19 3H5zm0 2h14v14H5V5zm11.004 2a1 1 0 0 0-.15.012c-1.328.196-3.498.438-5.409 1.674C8.535 9.92 7 12.248 7 16a1 1 0 0 0 1 1 1 1 0 0 0 1-1c0-3.248 1.116-4.72 2.531-5.635.996-.644 2.157-.924 3.26-1.127-.576 2.793-.599 4.503.26 7.078a1 1 0 0 0 1.265.633 1 1 0 0 0 .633-1.265c-.979-2.937-.969-3.48.022-7.442A1 1 0 0 0 16.004 7z"/></svg>