<svg height="24" width="24" xmlns="http://www.w3.org/2000/svg"><path style="color:#000;fill:#000;stroke-linecap:round;stroke-linejoin:round;-inkscape-stroke:none" d="M12.006 3a1 1 0 0 0-.152.012c-1.567.232-3.717 1.045-5.555 2.787C4.46 7.54 3 10.248 3 14a1 1 0 0 0 1 1 1 1 0 0 0 1-1c0-3.248 1.189-5.341 2.676-6.75.996-.944 2.084-1.466 3.082-1.822-.72 3.346-.753 5.663.29 8.88a1 1 0 0 0 .983.688C11.396 16.391 11 18.054 11 20a1 1 0 0 0 1 1 1 1 0 0 0 1-1c0-3.248 1.189-5.341 2.676-6.75.996-.944 2.084-1.466 3.082-1.822-.72 3.346-.753 5.663.29 8.88a1 1 0 0 0 1.26.643 1 1 0 0 0 .643-1.26c-1.17-3.61-1.167-4.997.016-9.433a1 1 0 0 0-1.113-1.246c-1.567.232-3.717 1.045-5.555 2.787-.51.482-.988 1.041-1.416 1.674-1.098-3.445-1.074-4.872.084-9.215A1 1 0 0 0 12.006 3z"/></svg>