<svg height="24" width="24" xmlns="http://www.w3.org/2000/svg"><path d="m3.975 17 3.75-10h1.8l3.75 10H11.55l-.9-2.55H6.6L5.7 17Zm3.15-4h3l-1.45-4.15h-.1zm9.225 4.275q-1.225 0-1.925-.637-.7-.638-.7-1.738 0-1.05.813-1.713.812-.662 2.087-.662.575 0 1.063.087.487.088.837.288v-.35q0-.675-.463-1.075-.462-.4-1.262-.4-.525 0-.988.225-.462.225-.787.65l-1.075-.8q.475-.675 1.2-1.025.725-.35 1.675-.35 1.55 0 2.375.738.825.737.825 2.137v4.4H18.55v-.85h-.075q-.325.5-.875.788-.55.287-1.25.287Zm.25-1.25q.8 0 1.363-.563.562-.562.562-1.362-.35-.2-.8-.3-.45-.1-.825-.1-.8 0-1.225.313-.425.312-.425.887 0 .5.375.812.375.313.975.313Z"/></svg>