<svg height="24" width="24" xmlns="http://www.w3.org/2000/svg"><path d="M4.925 19.075q-1.4-1.425-2.162-3.25Q2 14 2 12t.75-3.825q.75-1.825 2.175-3.25L6.35 6.35Q5.2 7.475 4.6 8.938 4 10.4 4 12q0 1.6.612 3.063.613 1.462 1.738 2.587ZM9.5 18.05q-.625 0-1.063-.438Q8 17.175 8 16.55t.438-1.063q.437-.437 1.062-.437t1.063.438q.437.437.437 1.062t-.438 1.063q-.437.437-1.062.437Zm3.475-5v-1.775l-1.525.9-1-1.75 1.525-.875-1.525-.875 1-1.75 1.525.9V6.05h2v1.775l1.525-.9 1 1.75-1.525.875 1.525.875-1 1.75-1.525-.9v1.775zm6.1 6.025L17.65 17.65q1.15-1.125 1.75-2.587Q20 13.6 20 12t-.613-3.063q-.612-1.462-1.737-2.587l1.425-1.425q1.4 1.425 2.163 3.25Q22 10 22 12t-.75 3.825q-.75 1.825-2.175 3.25z"/></svg>