<svg xmlns="http://www.w3.org/2000/svg" width="24" height="24"><path d="m18.998 1.395-2.896.777.775 2.898 2.898-.777zm1.953.591a1 1 0 0 0-.676.307L21 5l-3.187.854c-.25.457-.38.962-.385 1.43C17.408 8.785 18 10.195 18 12c0 .927-.132 1.493-.29 1.74-.156.248-.333.39-1.052.475-.274.032-.404.005-.869-.297a12 12 0 0 1-.887-.664A5.22 4.789 78.014 0 0 16.023 12a5.22 4.789 78.014 0 0-1.39-7.25 5.22 4.789 78.014 0 0-2.59-.947A5.22 4.789 78.014 0 0 7.977 6a5.22 4.789 78.014 0 0 .273 6.096c-.25.347-.592.795-.986 1.242C6.444 14.268 5.334 15 5 15c-.167 0-.202-.02-.355-.225-.154-.204-.318-.593-.424-1.017a7.6 7.6 0 0 1-.194-1.25L4 12.535l-2.443-2.443a1 1 0 0 0-.264 1.615l.766.766c.008.326-.007.86.22 1.77.144.575.355 1.186.764 1.732C3.453 16.52 4.167 17 5 17c1.667 0 2.82-1.268 3.764-2.338q.28-.318.521-.623c-.19.72-.21 1.454-.244 2.07-.032.58-.075 1.09-.172 1.432s-.19.481-.394.607c-.205.127-.553.177-1.098.086-.545-.09-1.22-.315-1.91-.539-.69-.223-1.385-.458-2.143-.48s-1.729.366-2.146 1.201c-.244.488-.236 1.024-.127 1.436.109.41.3.735.488 1.005.378.541.813.903.813.903a1 1 0 1 0 1.296-1.52s-.264-.235-.468-.527a1.4 1.4 0 0 1-.207-.416c.066-.142-.016-.091.293-.082.321.01.919.167 1.586.383.666.216 1.41.478 2.195.609s1.68.138 2.478-.355c.693-.428 1.086-1.123 1.268-1.768s.212-1.277.244-1.865a16 16 0 0 1 .074-.93 7.3 7.3 0 0 0 1.11 2.744h2.707c-.037-.028-.077-.05-.114-.08-.975-.776-1.72-1.932-1.834-3.68.657.538 1.216.995 1.721 1.323.661.429 1.417.698 2.19.607 1.065-.125 2.002-.588 2.511-1.392.51-.805.598-1.738.598-2.811 0-2.196-.582-3.892-.572-4.691.005-.4.032-.485.261-.676.23-.192.822-.463 1.94-.647a1 1 0 0 0 .812-1.215l-.466-2a1 1 0 0 0-1.024-.785M4 6.88 1.879 9 4 11.121 6.121 9zm6 2.1A1.02 1.02 0 0 1 11.021 10 1.02 1.02 0 0 1 10 11.021 1.02 1.02 0 0 1 8.979 10 1.02 1.02 0 0 1 10 8.979m3 0A1.02 1.02 0 0 1 14.021 10 1.02 1.02 0 0 1 13 11.021 1.02 1.02 0 0 1 11.979 10 1.02 1.02 0 0 1 13 8.979M20 15a1 1 0 1 0 0 2h.484c-.08.171-.054.176-.154.357-.462.84-1.14 1.541-1.58 1.627-.794.156-1.801.047-2.738-.34v2.13c1.052.307 2.133.366 3.12.173 1.523-.297 2.376-1.577 2.952-2.625.576-1.047.873-2.029.873-2.029A1 1 0 0 0 22 15zm-7.988 4.033v3h3v-3z" style="color:#000;font-style:normal;font-variant:normal;font-weight:400;font-stretch:normal;font-size:medium;line-height:normal;font-family:sans-serif;font-variant-ligatures:normal;font-variant-position:normal;font-variant-caps:normal;font-variant-numeric:normal;font-variant-alternates:normal;font-feature-settings:normal;text-indent:0;text-align:start;text-decoration:none;text-decoration-line:none;text-decoration-style:solid;text-decoration-color:#000;letter-spacing:normal;word-spacing:normal;text-transform:none;writing-mode:lr-tb;direction:ltr;text-orientation:mixed;dominant-baseline:auto;baseline-shift:baseline;text-anchor:start;white-space:normal;shape-padding:0;clip-rule:nonzero;display:inline;overflow:visible;visibility:visible;opacity:1;isolation:auto;mix-blend-mode:normal;color-interpolation:sRGB;color-interpolation-filters:linearRGB;solid-color:#000;solid-opacity:1;vector-effect:none;fill:#000;fill-opacity:1;fill-rule:evenodd;stroke:none;stroke-width:2;stroke-linecap:round;stroke-linejoin:round;stroke-miterlimit:4;stroke-dasharray:none;stroke-dashoffset:0;stroke-opacity:1;color-rendering:auto;image-rendering:auto;shape-rendering:auto;text-rendering:auto"/></svg>