<svg xmlns="http://www.w3.org/2000/svg" width="24" height="24"><path d="M9.982 2a2 2 0 0 0-1.091.336l-6 4A2 2 0 0 0 2 8v9a2 2 0 0 0 1.367 1.896l6 2a2 2 0 0 0 1.026.065l10-2A2 2 0 0 0 22 17V7a2 2 0 0 0-1.426-1.916l-10-3A2 2 0 0 0 9.982 2M11 4.3 20 7v10l-9 1.8zm-2 .366v14L4 17V8zM6 8v8h1V8z" style="color:#000;overflow:visible;opacity:1;vector-effect:none;fill:#000;fill-opacity:1;stroke:none;stroke-width:0;stroke-linecap:butt;stroke-linejoin:miter;stroke-miterlimit:4;stroke-dasharray:none;stroke-dashoffset:0;stroke-opacity:1"/></svg>