<svg xmlns="http://www.w3.org/2000/svg" width="24" height="24"><path d="M7 2.34a1 1 0 0 0-.5.135 1 1 0 0 0-.365 1.365l.015.023 1.028 1.78A8 8 0 0 0 4.072 11H2a1 1 0 0 0-1 1 1 1 0 0 0 1 1l.03-.002h2.042a8 8 0 0 0 3.104 5.36L6.135 20.16a1 1 0 0 0 .365 1.365 1 1 0 0 0 1.365-.365l.014-.025 1.023-1.774A8 8 0 0 0 12 20a8 8 0 0 0 3.096-.639l1.039 1.8a1 1 0 0 0 1.365.364 1 1 0 0 0 .365-1.365l-.015-.023-1.028-1.78A8 8 0 0 0 19.928 13H22a1 1 0 0 0 1-1 1 1 0 0 0-1-1l-.03.002h-2.034a8 8 0 0 0-3.102-5.375l1.031-1.787a1 1 0 0 0-.365-1.365 1 1 0 0 0-1.365.365l-.014.025-1.017 1.764A8 8 0 0 0 12 4a8 8 0 0 0-3.096.639l-1.039-1.8A1 1 0 0 0 7 2.34M12 6a6 6 0 0 1 2.094.379l-1.545 2.674A3 3 0 0 0 12 9a3 3 0 0 0-.545.057l-1.54-2.668A6 6 0 0 1 12 6m3.822 1.377a6 6 0 0 1 2.096 3.625h-3.09a3 3 0 0 0-.549-.951zm-7.634.014 1.533 2.658A3 3 0 0 0 9.18 11H6.088a6 6 0 0 1 2.1-3.61m-2.1 5.607h3.09a3 3 0 0 0 .543.951l-1.535 2.658a6 6 0 0 1-2.098-3.609M14.82 13h3.092a6 6 0 0 1-2.1 3.61L14.28 13.95A3 3 0 0 0 14.82 13m-3.367 1.943A3 3 0 0 0 12 15a3 3 0 0 0 .545-.057l1.54 2.668A6 6 0 0 1 12 18a6 6 0 0 1-2.086-.389z" style="fill:#000;stroke-width:.999999;stroke-linejoin:round"/></svg>