<svg xmlns="http://www.w3.org/2000/svg" width="24" height="24"><path d="M16.691 12.322a1.875 1.25 45 0 0-.732.268 1.875 1.25 45 0 0 .443 2.21 1.875 1.25 45 0 0 .012.013H1.807a7.1 7.1 0 0 0 1.525 4.365c2.9-.02 4.664-.313 5.648-.594.51-.145.819-.285.987-.377.126-.069.146-.082.148-.084L11 19s-.182.162-.443.305c-.262.142-.65.313-1.235.48-.969.277-2.51.532-4.795.615 1.486 1.228 4.034 1.909 6.028 1.912 3.877 0 7.581-2.509 8.517-5.863a1.875 1.25 15 0 0 .598.238 1.875 1.25 15 0 0 2.135-.724 1.875 1.25 15 0 0-1.49-1.693 1.875 1.25 15 0 0-1.454.043 1.875 1.25 45 0 0-.69-1.282 1.875 1.25 45 0 0-.542-.42 1.875 1.25 45 0 0-.938-.289zM6.18 16.062a.625.625 0 1 1 0 1.25.625.625 0 0 1 0-1.25z" style="color:#000;clip-rule:nonzero;display:inline;overflow:visible;visibility:visible;opacity:1;isolation:auto;mix-blend-mode:normal;color-interpolation:sRGB;color-interpolation-filters:linearRGB;solid-color:#000;solid-opacity:1;vector-effect:none;fill:#000;fill-opacity:1;fill-rule:nonzero;stroke:#fff;stroke-width:0;stroke-linecap:butt;stroke-linejoin:miter;stroke-miterlimit:4;stroke-dasharray:none;stroke-dashoffset:0;stroke-opacity:1;marker:none;marker-start:none;marker-mid:none;marker-end:none;color-rendering:auto;image-rendering:auto;shape-rendering:auto;text-rendering:auto"/><path d="M5.816 4.31c-.554 0-1 .447-1 1v2a1.5 1.5 0 0 1 1.5 1.5 1.5 1.5 0 0 1-1.5 1.5v2c0 .555.446 1 1 1h2a1.5 1.5 0 0 1 1.5-1.5 1.5 1.5 0 0 1 1.5 1.5h2c.554 0 1-.445 1-1v-2a1.5 1.5 0 0 0 1.5-1.5 1.5 1.5 0 0 0-1.5-1.5v-2c0-.553-.446-1-1-1h-3v1h3v3h1.001a.5.5 0 0 1 .5.5.5.5 0 0 1-.5.5h-1v3h-1.21a2.5 2.5 0 0 0-2.29-1.5 2.5 2.5 0 0 0-2.29 1.5h-1.21V11.1a2.5 2.5 0 0 0 1.5-2.29 2.5 2.5 0 0 0-1.5-2.29V5.31h3v-1z" style="fill:#000"/><path d="M7.816 4.31a1.5 1.5 0 0 0 .104.54h.896v-.54a.5.5 0 0 1 .5-.5.5.5 0 0 1 .5.5v.54h.897a1.5 1.5 0 0 0 .103-.54 1.5 1.5 0 0 0-1.5-1.5 1.5 1.5 0 0 0-1.5 1.5" style="fill:#000;stroke-width:1.5"/></svg>