<svg xmlns="http://www.w3.org/2000/svg" height="24" width="24"><path style="color:#000;clip-rule:nonzero;display:inline;overflow:visible;visibility:visible;opacity:1;isolation:auto;mix-blend-mode:normal;color-interpolation:sRGB;color-interpolation-filters:linearRGB;solid-color:#000;solid-opacity:1;vector-effect:none;fill:#000;fill-opacity:1;fill-rule:nonzero;stroke:#fff;stroke-width:0;stroke-linecap:butt;stroke-linejoin:miter;stroke-miterlimit:4;stroke-dasharray:none;stroke-dashoffset:0;stroke-opacity:1;marker:none;marker-start:none;marker-mid:none;marker-end:none;color-rendering:auto;image-rendering:auto;shape-rendering:auto;text-rendering:auto;enable-background:accumulate" d="M7 1c-1.108 0-2 .892-2 2v2c0 1.108.892 2 2 2h2c1.108 0 2-.892 2-2V3c0-1.108-.892-2-2-2H7zm0 2h2v2H7V3zM4 8c-1.108 0-2 .892-2 2v2c0 1.108.892 2 2 2h2c1.108 0 2-.892 2-2v-2c0-1.108-.892-2-2-2H4zm7 0c-1.108 0-2 .892-2 2v2c0 1.108.892 2 2 2h2c1.108 0 2-.892 2-2v-2c0-1.108-.892-2-2-2h-2zm-7 2h2v2H4v-2zm7 0h2v2h-2v-2zm5.875 3.012a1.875 1.25 45 0 0-.732.267 1.875 1.25 45 0 0 .443 2.211 1.875 1.25 45 0 0 .012.012H1.99a7.117 7.117 0 0 0 1.526 4.365c2.9-.02 4.664-.312 5.648-.594.51-.145.818-.285.986-.377.169-.091.149-.084.149-.084l.885.877s-.182.163-.444.305c-.261.143-.65.314-1.234.48-.97.278-2.51.532-4.795.616 1.486 1.227 4.033 1.908 6.027 1.912 3.878 0 7.582-2.51 8.518-5.863a1.875 1.25 15 0 0 .598.238 1.875 1.25 15 0 0 2.134-.725 1.875 1.25 15 0 0-1.49-1.693 1.875 1.25 15 0 0-1.453.043 1.875 1.25 45 0 0-.69-1.281 1.875 1.25 45 0 0-.543-.42 1.875 1.25 45 0 0-.937-.29zm-10.512 3.74a.625.625 0 1 1 0 1.25.625.625 0 0 1 0-1.25z"/></svg>