<svg xmlns="http://www.w3.org/2000/svg" height="24" width="24"><path style="color:#000;overflow:visible;opacity:1;vector-effect:none;fill:#000;fill-opacity:1;stroke:none;stroke-width:2;stroke-linecap:butt;stroke-linejoin:miter;stroke-miterlimit:4;stroke-dasharray:none;stroke-dashoffset:0;stroke-opacity:.82100238" d="M3 4c-.554 0-1 .446-1 1v14c0 .554.446 1 1 1h14c2 0 3-6 4-6h1v-4h-1c-1 0-2-6-4-6H3zm1 2h13c2 0 2 5 4 5v2c-2 0-2 5-4 5h-1l1-4h-2v-2h-3v-2h-2v2H9v2H8v-3H6v3H5l1 4H4V6zm9.996 3.652-.508 1.934 2.903.762.507-1.934-2.902-.762z"/></svg>