<svg xmlns="http://www.w3.org/2000/svg" width="24" height="24"><circle cx="9.5" cy="9.5" r="1.5" style="fill:#000;stroke-width:2;stroke-miterlimit:4;stroke-dasharray:none"/><circle cx="14.5" cy="9.5" r="1.5" style="fill:#000;stroke-width:2;stroke-miterlimit:4;stroke-dasharray:none"/><path d="M12 2c-1.167 0-2.963.258-4.621 1.357-1.658 1.1-3.086 3.078-3.375 6.155C3.472 15.167 3.012 18 3.012 18h2.02c.102-.67.5-3.378.964-8.316.247-2.621 1.32-3.968 2.527-4.768S11.167 3.898 12 3.898s2.269.218 3.477 1.018 2.28 2.147 2.527 4.768c.464 4.938.862 7.647.965 8.316h2.02s-.461-2.833-.993-8.488c-.29-3.077-1.717-5.056-3.375-6.155S13.167 2 12 2" style="color:#000;fill:#000;stroke-width:.974519;-inkscape-stroke:none"/><path d="M1.003 20h21.994v2H1.003z" style="fill:#000;stroke-width:3.12755;stroke-miterlimit:4;stroke-dasharray:none"/><path d="M12 13a2 1 0 0 0-1.33.256l-3.77.787L7.31 16l2.101-.44-1.969 1.649 1.284 1.535L12 16.002l3.275 2.742 1.284-1.535-1.97-1.648 2.102.439.409-1.957-3.76-.785A2 1 0 0 0 12 13" style="fill:#000;stroke-width:2;stroke-miterlimit:4;stroke-dasharray:none"/></svg>